<?xml version="1.0" encoding="UTF-8"?>
<svg width="173px" height="37px" viewBox="0 0 173 37" version="1.1" xmlns="http://www.w3.org/2000/svg" xmlns:xlink="http://www.w3.org/1999/xlink">
    <!-- Generator: Sketch 64 (93537) - https://sketch.com -->
    <title>logo</title>
    <desc>Created with Sketch.</desc>
    <g id="Page-1" stroke="none" stroke-width="1" fill="none" fill-rule="evenodd">
        <g id="Group" fill="#FFFFFF" fill-rule="nonzero">
            <path d="M22.5632839,22.9454253 C21.3766298,22.9454253 20.4027995,23.8522397 20.3203619,24.9986471 L20.3147092,25.1563978 C20.3147092,26.3414393 21.2369459,27.2997772 22.4028503,27.3808708 L22.5632839,27.3864304 L28.8050171,27.3864304 C30.0649943,27.3864304 31.0729761,28.377556 31.0729761,29.616463 C31.0729761,30.8363099 30.0649943,31.8274355 28.8050171,31.8274355 L25.606,31.827 L25.6066135,34.1146484 C25.6066135,36.5352821 22.7571266,37.8694896 20.8380844,36.3637411 L1.10490308,20.7344529 C-0.368301026,19.5908464 -0.368301026,17.398934 1.10490308,16.2553276 L20.8380844,0.645099415 C22.7571266,-0.879709195 25.6066135,0.473558446 25.6066135,2.87513201 L25.606,5.162 L21.5940707,5.16234492 C20.4051691,5.16234492 19.4120958,6.09010228 19.3314037,7.24104655 L19.3261117,7.39237751 C19.3261117,8.55918758 20.2660837,9.5167328 21.4335304,9.59779191 L21.5940707,9.60335 L25.606,9.603 L25.606,9.604 L25.7239749,9.60855348 C26.9100706,9.68789614 27.8358039,10.6643627 27.8358039,11.8333826 C27.8358039,13.0405227 26.8487124,14.0423469 25.6071363,14.0630873 L25.606,14.063 L15.2748005,14.0634152 C14.0696049,14.0634152 13.0949685,14.9702295 13.0124957,16.116637 L13.0068415,16.2743877 C13.0068415,17.4616735 13.9325747,18.4213963 15.1186705,18.4993119 L15.2748005,18.5044203 L31.732041,18.5044203 C32.972634,18.5044203 34,19.4955459 34,20.7153927 C34,21.9542997 32.972634,22.9454253 31.732041,22.9454253 L22.5632839,22.9454253 Z" id="Combined-Shape"></path>
            <path d="M34.7607656,13 L31.2200957,13 C29.9952153,13 29,12.0940171 29,11 C29,9.90598291 29.9952153,9 31.2200957,9 L34.7607656,9 C36.0047847,9 37,9.90598291 37,11 C37,12.0940171 36.0047847,13 34.7607656,13 Z" id="Path"></path>
            <path d="M39.9914163,22 L39.9914163,22 C38.8927039,22 38,21.1072961 38,19.9914163 C38,18.8927039 38.8927039,18 39.9914163,18 C41.1072961,18 42,18.8927039 42,19.9914163 C42,21.1072961 41.1072961,22 39.9914163,22 Z" id="Path"></path>
        </g>
        <text id="BitPull" font-family="FiraSans-Medium, Fira Sans" font-size="40" font-weight="400" fill="#FFFFFF">
            <tspan x="52" y="33">BitPull</tspan>
        </text>
    </g>
</svg>