<?xml version="1.0" encoding="UTF-8"?>
<svg width="215px" height="195px" viewBox="0 0 215 195" version="1.1" xmlns="http://www.w3.org/2000/svg" xmlns:xlink="http://www.w3.org/1999/xlink">
    <!-- Generator: Sketch 64 (93537) - https://sketch.com -->
    <title>Untitled 2</title>
    <desc>Created with Sketch.</desc>
    <g id="Page-1" stroke="none" stroke-width="1" fill="none" fill-rule="evenodd">
        <g id="logo" fill="#fff" fill-rule="nonzero">
            <path d="M132.1,15.1 L132.1,27.0994472 L111.4,27.1 C105.098462,27.1 99.8633373,32.2381775 99.703748,38.5054117 L99.7,38.8 C99.7,45.1015385 104.838178,50.239716 111.105412,50.3963223 L111.4,50.4 L132.1,50.3994472 L132.1,50.4024472 L132.199063,50.403748 C138.558769,50.5633373 143.6,55.7984615 143.6,62.1 C143.6,68.4341394 138.506473,73.690802 132.100252,73.7983208 L132.1,73.7994472 L131.975193,73.7997635 C131.950148,73.7999211 131.925084,73.8 131.9,73.8 L78.8,73.8 C72.4,73.8 67.2603077,78.8412308 67.1036781,85.105482 L67.1,85.4 C67.1,91.8 72.1412308,96.9396923 78.5009373,97.0963219 L78.8,97.1 L132.1,97.0994472 L132.1,97.0994472 L163.7,97.1 C170.1,97.1 175.4,102.3 175.4,108.7 C175.4,115.2 170.1,120.4 163.7,120.4 L116.4,120.4 C110.098462,120.4 104.960284,125.441231 104.803678,131.705482 L104.8,132 C104.8,138.4 109.841231,143.539692 116.105482,143.696322 L116.4,143.7 L132.1,143.699447 L132.1,143.699447 L148.6,143.7 C155.1,143.7 160.3,148.9 160.3,155.4 C160.3,161.8 155.1,167 148.6,167 L132.1,166.999447 L132.1,179 C132.1,191.7 117.4,198.7 107.5,190.8 L5.7,108.8 C-1.9,102.8 -1.9,91.3 5.7,85.3 L107.5,3.4 C117.4,-4.6 132.1,2.5 132.1,15.1 Z" id="Combined-Shape"></path>
            <path d="M179.7,73.8 L161.2,73.8 C154.8,73.8 149.6,68.5 149.6,62.1 C149.6,55.7 154.8,50.4 161.2,50.4 L179.7,50.4 C186.2,50.4 191.4,55.7 191.4,62.1 C191.4,68.5 186.2,73.8 179.7,73.8 Z" id="Path"></path>
            <path d="M203,120.4 L203,120.4 C196.6,120.4 191.4,115.2 191.4,108.7 C191.4,102.3 196.6,97.1 203,97.1 C209.5,97.1 214.7,102.3 214.7,108.7 C214.7,115.2 209.5,120.4 203,120.4 Z" id="Path"></path>
        </g>
    </g>
</svg>